HIERARCHY
ROOT hip
{
  OFFSET 0 0 0
  CHANNELS 6 Xposition Yposition Zposition Zrotation Yrotation Xrotation
  JOINT abdomen
  {
    OFFSET 0 20.6881 -0.73152
    CHANNELS 3 Zrotation Xrotation Yrotation
    JOINT chest
    {
      OFFSET 0 11.7043 -0.48768
      CHANNELS 3 Zrotation Xrotation Yrotation
      JOINT neck
      {
        OFFSET 0 22.1894 -2.19456
        CHANNELS 3 Zrotation Xrotation Yrotation
        JOINT head
        {
          OFFSET -0.24384 7.07133 1.2192
          CHANNELS 3 Zrotation Xrotation Yrotation
          JOINT leftEye
          {
            OFFSET 4.14528 8.04674 8.04672
            CHANNELS 3 Zrotation Xrotation Yrotation
            End Site
            {
              OFFSET 1 0 0
            }
          }
          JOINT rightEye
          {
            OFFSET -3.6576 8.04674 8.04672
            CHANNELS 3 Zrotation Xrotation Yrotation
            End Site
            {
              OFFSET 1 0 0
            }
          }
        }
      }
      JOINT rCollar
      {
        OFFSET -2.68224 19.2634 -4.8768
        CHANNELS 3 Zrotation Xrotation Yrotation
        JOINT rShldr
        {
          OFFSET -8.77824 -1.95073 1.46304
          CHANNELS 3 Zrotation Xrotation Yrotation
          JOINT rForeArm
          {
            OFFSET -28.1742 -1.7115 0.48768
            CHANNELS 3 Zrotation Xrotation Yrotation
            JOINT rHand
            {
              OFFSET -22.5879 0.773209 7.07136
              CHANNELS 3 Zrotation Xrotation Yrotation
              JOINT rThumb1
              {
                OFFSET -1.2192 -0.487915 3.41376
                CHANNELS 3 Zrotation Xrotation Yrotation
                JOINT rThumb2
                {
                  OFFSET -3.37035 -0.52449 3.41376
                  CHANNELS 3 Zrotation Xrotation Yrotation
                  End Site
                  {
                    OFFSET -1.78271 -1.18214 1.43049
                  }
                }
              }
              JOINT rIndex1
              {
                OFFSET -7.75947 0.938293 5.60832
                CHANNELS 3 Zrotation Xrotation Yrotation
                JOINT rIndex2
                {
                  OFFSET -2.54057 -0.884171 1.56538
                  CHANNELS 3 Zrotation Xrotation Yrotation
                  End Site
                  {
                    OFFSET -1.62519 -0.234802 1.16502
                  }
                }
              }
              JOINT rMid1
              {
                OFFSET -8.24714 1.18213 3.41376
                CHANNELS 3 Zrotation Xrotation Yrotation
                JOINT rMid2
                {
                  OFFSET -3.10165 -0.590103 1.0647
                  CHANNELS 3 Zrotation Xrotation Yrotation
                  End Site
                  {
                    OFFSET -2.48547 -0.328903 0.83742
                  }
                }
              }
              JOINT rRing1
              {
                OFFSET -8.82822 0.546677 1.51678
                CHANNELS 3 Zrotation Xrotation Yrotation
                JOINT rRing2
                {
                  OFFSET -2.60934 -0.819778 -0.0198488
                  CHANNELS 3 Zrotation Xrotation Yrotation
                  End Site
                  {
                    OFFSET -2.33842 -0.294052 0.168128
                  }
                }
              }
              JOINT rPinky1
              {
                OFFSET -8.27202 -0.0477905 -0.4584
                CHANNELS 3 Zrotation Xrotation Yrotation
                JOINT rPinky2
                {
                  OFFSET -1.82734 -0.647385 -0.700984
                  CHANNELS 3 Zrotation Xrotation Yrotation
                  End Site
                  {
                    OFFSET -1.69225 -0.51767 -0.607171
                  }
                }
              }
            }
          }
        }
      }
      JOINT lCollar
      {
        OFFSET 2.68224 19.2634 -4.8768
        CHANNELS 3 Zrotation Xrotation Yrotation
        JOINT lShldr
        {
          OFFSET 8.77824 -1.95073 1.46304
          CHANNELS 3 Zrotation Xrotation Yrotation
          JOINT lForeArm
          {
            OFFSET 28.1742 -1.7115 0.48768
            CHANNELS 3 Zrotation Xrotation Yrotation
            JOINT lHand
            {
              OFFSET 22.5879 0.773209 7.07136
              CHANNELS 3 Zrotation Xrotation Yrotation
              JOINT lThumb1
              {
                OFFSET 1.2192 -0.487915 3.41376
                CHANNELS 3 Zrotation Xrotation Yrotation
                JOINT lThumb2
                {
                  OFFSET 3.37035 -0.52449 3.41376
                  CHANNELS 3 Zrotation Xrotation Yrotation
                  End Site
                  {
                    OFFSET 1.78271 -1.18214 1.43049
                  }
                }
              }
              JOINT lIndex1
              {
                OFFSET 7.75947 0.938293 5.60832
                CHANNELS 3 Zrotation Xrotation Yrotation
                JOINT lIndex2
                {
                  OFFSET 2.54057 -0.884171 1.56538
                  CHANNELS 3 Zrotation Xrotation Yrotation
                  End Site
                  {
                    OFFSET 1.62519 -0.234802 1.16502
                  }
                }
              }
              JOINT lMid1
              {
                OFFSET 8.24714 1.18213 3.41376
                CHANNELS 3 Zrotation Xrotation Yrotation
                JOINT lMid2
                {
                  OFFSET 3.10165 -0.590103 1.0647
                  CHANNELS 3 Zrotation Xrotation Yrotation
                  End Site
                  {
                    OFFSET 2.48547 -0.328903 0.83742
                  }
                }
              }
              JOINT lRing1
              {
                OFFSET 8.82822 0.546677 1.51678
                CHANNELS 3 Zrotation Xrotation Yrotation
                JOINT lRing2
                {
                  OFFSET 2.60934 -0.819778 -0.0198488
                  CHANNELS 3 Zrotation Xrotation Yrotation
                  End Site
                  {
                    OFFSET 2.33842 -0.294052 0.168128
                  }
                }
              }
              JOINT lPinky1
              {
                OFFSET 8.27202 -0.0477905 -0.4584
                CHANNELS 3 Zrotation Xrotation Yrotation
                JOINT lPinky2
                {
                  OFFSET 1.82734 -0.647385 -0.700984
                  CHANNELS 3 Zrotation Xrotation Yrotation
                  End Site
                  {
                    OFFSET 1.69225 -0.51767 -0.607171
                  }
                }
              }
            }
          }
        }
      }
    }
  }
  JOINT rButtock
  {
    OFFSET -8.77824 4.35084 1.2192
    CHANNELS 3 Zrotation Xrotation Yrotation
    JOINT rThigh
    {
      OFFSET 0 -1.70687 -2.19456
      CHANNELS 3 Zrotation Xrotation Yrotation
      JOINT rShin
      {
        OFFSET 0 -36.8199 0.73152
        CHANNELS 3 Zrotation Xrotation Yrotation
        JOINT rFoot
        {
          OFFSET 0.73152 -45.1104 -5.12064
          CHANNELS 3 Zrotation Xrotation Yrotation
          End Site
          {
            OFFSET -1.1221 -3.69964 12.103
          }
        }
      }
    }
  }
  JOINT lButtock
  {
    OFFSET 8.77824 4.35084 1.2192
    CHANNELS 3 Zrotation Xrotation Yrotation
    JOINT lThigh
    {
      OFFSET 0 -1.70687 -2.19456
      CHANNELS 3 Zrotation Xrotation Yrotation
      JOINT lShin
      {
        OFFSET 0 -36.8199 0.73152
        CHANNELS 3 Zrotation Xrotation Yrotation
        JOINT lFoot
        {
          OFFSET -0.73152 -45.1104 -5.12064
          CHANNELS 3 Zrotation Xrotation Yrotation
          End Site
          {
            OFFSET 1.1221 -3.69964 12.103
          }
        }
      }
    }
  }
}
MOTION
Frames:	7
Frame Time:	0.00833333
21.8673 74.9702 -34.5887 -12.0093 33.5621 4.2355 6.64996 4.32593 0.254232 0.230692 -2.29817 0.151986 5.14805 7.1079 -6.14904 -0.175763 -21.598 -13.0796 -0.0 0.0 0.0 -0.0 0.0 0.0 -5.55169e-13 1.89872e-13 1.44164e-12 28.0987 13.1863 6.88701 -24.0647 -49.3051 103.077 -1.75579 -34.7782 -5.59943 -8.32869e-09 -8.31428e-09 -4.62274e-09 -1.42667e-08 -1.42151e-08 -8.20976e-09 -8.32869e-09 -8.31428e-09 -4.62275e-09 7.73091 5.47488 0.417314 -8.32869e-09 -8.31428e-09 -4.62275e-09 2.90554 0.965183 0.102902 -8.32868e-09 -8.31428e-09 -4.62275e-09 10.2786 0.731801 0.0259123 -8.32869e-09 -8.31428e-09 -4.62275e-09 2.22167 -0.733487 -0.20892 -5.55267e-13 1.89881e-13 1.44142e-12 -73.0014 57.1129 11.2407 22.5498 -16.6055 -45.303 0.48377 -19.3727 2.83261 1.2643e-09 4.64914e-09 -4.83819e-09 2.25903e-09 8.11652e-09 -8.35127e-09 1.2643e-09 4.64915e-09 -4.83819e-09 -7.73091 5.47488 -0.417314 1.26431e-09 4.64914e-09 -4.83819e-09 -2.90554 0.965183 -0.102902 1.26429e-09 4.64914e-09 -4.83819e-09 -10.2786 0.731801 -0.0259123 1.26431e-09 4.64914e-09 -4.8382e-09 -2.22167 -0.733487 0.20892 -2.03217e-16 0.0 -3.88251e-19 -16.7679 -12.7622 6.25243 -0.245889 35.8928 0.709764 12.0852 25.8168 -28.641 2.03217e-16 0.0 3.88251e-19 36.6412 -50.898 22.7564 0.832549 57.9245 -1.81104 1.32999 -14.207 5.50543
22.6377 75.3531 -34.6038 -11.913 35.8094 4.0537 6.38156 4.23643 0.119706 0.263667 -2.3048 0.103526 5.05289 7.09157 -6.27691 -0.181697 -21.5124 -13.3195 -0.0 0.0 0.0 -0.0 0.0 0.0 -5.31066e-13 1.13704e-13 1.63167e-12 29.704 8.77771 6.46686 -24.111 -49.2527 102.932 -1.89795 -35.9387 -5.84739 -9.64908e-09 -9.6769e-09 -5.08553e-09 -1.65338e-08 -1.65505e-08 -9.04389e-09 -9.64908e-09 -9.67689e-09 -5.08554e-09 7.73091 5.47488 0.417314 -9.64908e-09 -9.67689e-09 -5.08554e-09 2.90554 0.965183 0.102902 -9.64907e-09 -9.67689e-09 -5.08553e-09 10.2786 0.731801 0.0259123 -9.64908e-09 -9.67689e-09 -5.08553e-09 2.22167 -0.733487 -0.20892 -5.31175e-13 1.13705e-13 1.63143e-12 -72.382 57.29 10.215 22.6321 -16.7366 -45.5336 0.498066 -19.6467 2.87593 1.16028e-09 5.10072e-09 -5.4296e-09 2.08957e-09 8.90803e-09 -9.37612e-09 1.16028e-09 5.10073e-09 -5.4296e-09 -7.73091 5.47488 -0.417314 1.16028e-09 5.10073e-09 -5.42961e-09 -2.90554 0.965183 -0.102902 1.16027e-09 5.10073e-09 -5.4296e-09 -10.2786 0.731801 -0.0259123 1.16028e-09 5.10073e-09 -5.42961e-09 -2.22167 -0.733487 0.20892 -2.03217e-16 0.0 -3.88251e-19 -16.3032 -13.4952 6.62008 -0.283287 38.8762 0.781026 11.6293 27.0811 -26.6652 2.03217e-16 0.0 3.88251e-19 33.4472 -51.4221 19.468 0.791983 57.0133 -1.73621 1.21554 -14.1413 5.22875
23.3853 75.7305 -34.6167 -11.7875 37.9956 3.8706 6.01511 4.23131 0.0384283 0.320043 -2.32365 0.0707412 4.94495 7.10991 -6.40475 -0.201424 -21.4724 -13.5578 -0.0 0.0 0.0 -0.0 0.0 0.0 -3.30062e-13 -1.6437e-13 1.31101e-12 31.375 4.64083 6.19087 -24.158 -49.1917 102.781 -1.95802 -36.3147 -5.93547 -8.17845e-09 -8.1884e-09 -3.99995e-09 -1.4024e-08 -1.40135e-08 -7.12778e-09 -8.17845e-09 -8.18839e-09 -3.99996e-09 7.73091 5.47488 0.417314 -8.17846e-09 -8.18839e-09 -3.99995e-09 2.90554 0.965183 0.102902 -8.17845e-09 -8.18839e-09 -3.99995e-09 10.2786 0.731801 0.0259123 -8.17846e-09 -8.18839e-09 -3.99995e-09 2.22167 -0.733487 -0.20892 -3.30198e-13 -1.64377e-13 1.31074e-12 -71.7408 57.4741 9.19023 22.7243 -16.8851 -45.7927 0.517719 -20.0178 2.93482 8.42035e-10 3.98079e-09 -4.29033e-09 1.5211e-09 6.95425e-09 -7.41232e-09 8.42034e-10 3.98079e-09 -4.29033e-09 -7.73091 5.47488 -0.417314 8.42038e-10 3.98079e-09 -4.29033e-09 -2.90554 0.965183 -0.102902 8.42023e-10 3.98079e-09 -4.29033e-09 -10.2786 0.731801 -0.0259123 8.42036e-10 3.98079e-09 -4.29034e-09 -2.22167 -0.733487 0.20892 -2.03217e-16 0.0 -3.88251e-19 -15.9124 -14.5196 6.72771 -0.319173 42.2412 0.927011 10.0052 28.2598 -22.3417 2.03217e-16 0.0 3.88251e-19 30.318 -51.7245 16.3006 0.754318 56.0875 -1.65878 1.07832 -14.0805 4.89649
24.1086 76.0962 -34.6214 -11.6508 40.1072 3.6735 5.55834 4.29262 -0.00814931 0.39959 -2.35053 0.0479232 4.82253 7.15321 -6.53379 -0.228341 -21.4547 -13.7955 -0.0 0.0 0.0 -0.0 0.0 0.0 -1.71832e-15 -5.84792e-13 6.48563e-13 33.2067 0.616892 6.01613 -24.2327 -49.0924 102.54 -1.9215 -35.9829 -5.86659 -4.90964e-09 -4.88239e-09 -1.85299e-09 -8.43725e-09 -8.37185e-09 -3.32931e-09 -4.90963e-09 -4.88238e-09 -1.85299e-09 7.73091 5.47488 0.417314 -4.90964e-09 -4.88238e-09 -1.85299e-09 2.90554 0.965183 0.102902 -4.90963e-09 -4.88238e-09 -1.85299e-09 10.2786 0.731801 0.0259123 -4.90964e-09 -4.88238e-09 -1.85299e-09 2.22167 -0.733487 -0.20892 -1.89402e-15 -5.84808e-13 6.48274e-13 -71.0761 57.6512 8.15011 22.8234 -17.0463 -46.0743 0.542402 -20.4671 3.00659 3.57112e-10 1.80238e-09 -1.99054e-09 6.454e-10 3.15163e-09 -3.44478e-09 3.57111e-10 1.80239e-09 -1.99053e-09 -7.73091 5.47488 -0.417314 3.57115e-10 1.80238e-09 -1.99054e-09 -2.90554 0.965183 -0.102902 3.57101e-10 1.80238e-09 -1.99054e-09 -10.2786 0.731801 -0.0259123 3.57114e-10 1.80238e-09 -1.99055e-09 -2.22167 -0.733487 0.20892 -2.03217e-16 0.0 -3.88251e-19 -15.6 -15.847 6.54016 -0.382891 46.0323 1.1512 7.34105 29.0762 -16.0471 2.03217e-16 0.0 3.88251e-19 27.2373 -51.8375 13.1999 0.719583 55.1473 -1.5802 0.922256 -14.0185 4.5233
24.8072 76.4574 -34.6122 -11.5086 42.1411 3.4577 5.05011 4.40355 -0.0339315 0.48132 -2.38245 0.0308777 4.7094 7.20367 -6.6535 -0.27403 -21.4309 -14.0186 -0.0 0.0 0.0 -0.0 0.0 0.0 3.16584e-13 -9.86342e-13 -2.56179e-14 35.1128 -3.02018 5.95838 -24.3204 -48.9736 102.255 -1.80375 -35.0629 -5.66822 -1.44321e-09 -1.30255e-09 3.78532e-10 -2.51168e-09 -2.26105e-09 6.21668e-10 -1.4432e-09 -1.30255e-09 3.78528e-10 7.73091 5.47488 0.417314 -1.44321e-09 -1.30255e-09 3.78529e-10 2.90554 0.965183 0.102902 -1.44319e-09 -1.30255e-09 3.78529e-10 10.2786 0.731801 0.0259123 -1.44321e-09 -1.30255e-09 3.78535e-10 2.22167 -0.733487 -0.20892 3.16378e-13 -9.86367e-13 -2.59189e-14 -70.4009 57.805 7.12689 22.9191 -17.2031 -46.3498 0.56837 -20.9208 3.07962 -8.88165e-11 -4.50801e-10 4.34176e-10 -1.65295e-10 -7.8294e-10 7.39632e-10 -8.88169e-11 -4.50796e-10 4.34188e-10 -7.73091 5.47488 -0.417314 -8.88139e-11 -4.50799e-10 4.34177e-10 -2.90554 0.965183 -0.102902 -8.88256e-11 -4.50799e-10 4.34179e-10 -10.2786 0.731801 -0.0259123 -8.88143e-11 -4.50799e-10 4.34172e-10 -2.22167 -0.733487 0.20892 -2.03217e-16 0.0 -3.88251e-19 -15.2949 -17.3561 6.2024 -0.486407 49.9923 1.42287 4.38248 29.3192 -9.24396 2.03217e-16 0.0 3.88251e-19 24.3244 -51.7607 10.3217 0.687158 54.1978 -1.50059 0.755527 -13.9705 4.11116
25.4852 76.8165 -34.5843 -11.3693 44.098 3.2196 4.52918 4.54728 -0.0528178 0.544247 -2.41641 0.01541 4.62911 7.24353 -6.75335 -0.349622 -21.3732 -14.2126 -0.0 0.0 0.0 -0.0 0.0 0.0 4.87465e-13 -1.2078e-12 -3.81468e-13 37.0093 -5.99625 6.02993 -24.4072 -48.8547 101.97 -1.62706 -33.6742 -5.37292 6.20255e-10 1.0074e-09 1.71779e-09 1.01465e-09 1.68328e-09 2.99531e-09 6.2026e-10 1.0074e-09 1.71778e-09 7.73091 5.47488 0.417314 6.20255e-10 1.0074e-09 1.71779e-09 2.90554 0.965183 0.102902 6.20269e-10 1.0074e-09 1.71778e-09 10.2786 0.731801 0.0259123 6.2025e-10 1.0074e-09 1.71779e-09 2.22167 -0.733487 -0.20892 4.87258e-13 -1.20783e-12 -3.81766e-13 -69.7311 57.9201 6.15512 23.0017 -17.3393 -46.5904 0.591119 -21.3051 3.14191 -2.90079e-10 -1.79507e-09 1.94823e-09 -5.38745e-10 -3.13259e-09 3.35408e-09 -2.90079e-10 -1.79506e-09 1.94824e-09 -7.73091 5.47488 -0.417314 -2.90077e-10 -1.79507e-09 1.94823e-09 -2.90554 0.965183 -0.102902 -2.90088e-10 -1.79507e-09 1.94823e-09 -10.2786 0.731801 -0.0259123 -2.90077e-10 -1.79507e-09 1.94822e-09 -2.22167 -0.733487 0.20892 -2.03217e-16 0.0 -3.88251e-19 -14.9123 -18.9244 5.86129 -0.621634 53.8643 1.69709 1.90512 29.0736 -3.45404 2.03217e-16 0.0 3.88251e-19 21.6922 -51.5068 7.81673 0.656362 53.2444 -1.42 0.585819 -13.9519 3.66191
26.1515 77.1761 -34.5449 -11.2194 45.9874 2.9881 3.98373 4.74465 -0.0560375 0.581922 -2.45515 0.00358225 4.59632 7.26908 -6.82918 -0.470816 -21.2851 -14.3756 -0.0 0.0 0.0 -0.0 0.0 0.0 4.34746e-13 -1.17333e-12 -2.26972e-13 38.933 -8.17095 6.26938 -24.4762 -48.756 101.74 -1.39812 -31.669 -4.96593 5.15138e-10 1.47756e-09 1.67992e-09 8.31065e-10 2.48971e-09 2.93622e-09 5.15143e-10 1.47756e-09 1.67991e-09 7.73091 5.47488 0.417314 5.15138e-10 1.47756e-09 1.67992e-09 2.90554 0.965183 0.102902 5.15151e-10 1.47756e-09 1.67992e-09 10.2786 0.731801 0.0259123 5.15132e-10 1.47756e-09 1.67992e-09 2.22167 -0.733487 -0.20892 4.34592e-13 -1.17335e-12 -2.27242e-13 -69.0727 57.9936 5.26245 23.0752 -17.4619 -46.8049 0.608749 -21.5988 3.18969 -1.06776e-10 -1.76657e-09 2.1063e-09 -2.26395e-10 -3.08916e-09 3.63114e-09 -1.06776e-10 -1.76656e-09 2.10632e-09 -7.73091 5.47488 -0.417314 -1.06774e-10 -1.76657e-09 2.1063e-09 -2.90554 0.965183 -0.102902 -1.06784e-10 -1.76657e-09 2.1063e-09 -10.2786 0.731801 -0.0259123 -1.06773e-10 -1.76657e-09 2.1063e-09 -2.22167 -0.733487 0.20892 -2.03217e-16 0.0 -3.88251e-19 -14.4269 -20.5485 5.56052 -0.771977 57.658 1.96085 0.0454585 28.3357 1.13679 2.03217e-16 0.0 3.88251e-19 19.4135 -51.0746 5.78396 0.62704 52.2777 -1.33631 0.407476 -13.9781 3.16058
